<svg xmlns="http://www.w3.org/2000/svg" viewBox="0 0 500 500"><g id="freepik--background-complete--inject-32"><path d="M82.59,295.92l-13.12.28-6.66.11c-2.23,0-4.47,0-6.7.05h-.44v-.45l-.06-11.19v-.5h.5l13.24.06c4.42,0,8.83.11,13.24.16h.28v.27c0,1.9-.09,3.78-.13,5.65Zm0,0-.14-5.66c0-1.86-.11-3.7-.13-5.53l.27.27c-4.41.05-8.82.16-13.24.16l-13.24.07.5-.5,0,11.19-.45-.45c2.18,0,4.36,0,6.55.06l6.58.11Z" style="fill:#ebebeb"></path><path d="M67.82,310l-13.12.28-6.66.11c-2.23,0-4.47,0-6.7.05H40.9V310l-.06-11.19v-.51h.5l13.24.06c4.41,0,8.83.11,13.24.16h.28v.27c0,1.9-.08,3.78-.13,5.65Zm0,0-.14-5.66c-.05-1.86-.11-3.7-.13-5.53l.27.27c-4.41.05-8.83.16-13.24.16l-13.24.07.5-.5L41.79,310l-.45-.45c2.18,0,4.36,0,6.55.06l6.58.11Z" style="fill:#ebebeb"></path><path d="M181.07,188.08l-13.13.28-6.66.11c-2.22.05-4.46,0-6.69.06h-.45v-.45l0-11.19v-.5h.51l13.24.06c4.41,0,8.82.12,13.24.17h.27v.27c0,1.9-.09,3.79-.13,5.66Zm0,0-.14-5.65c-.05-1.87-.12-3.71-.14-5.54l.28.27c-4.42.06-8.83.16-13.24.17l-13.24.06.5-.5L155,188.08l-.44-.44c2.18,0,4.35,0,6.54.05l6.58.11Z" style="fill:#ebebeb"></path><path d="M166.3,202.19l-13.13.28-6.66.11c-2.23,0-4.46,0-6.69.06h-.45v-.45L139.32,191v-.5h.51l13.24.06c4.41,0,8.82.12,13.24.17h.27V191c0,1.9-.09,3.79-.13,5.65Zm0,0-.15-5.65c0-1.87-.11-3.71-.13-5.54l.28.27c-4.42.06-8.83.16-13.24.17l-13.24.06.49-.5-.05,11.19-.44-.44c2.18,0,4.35,0,6.54.05l6.58.11Z" style="fill:#ebebeb"></path><path d="M151.58,188.08l-13.12.28-6.66.11c-2.23.05-4.47,0-6.7.06h-.44v-.45l-.06-11.19v-.5h.5l13.24.06c4.42,0,8.83.12,13.24.17h.28v.27c0,1.9-.09,3.79-.14,5.66Zm0,0-.14-5.65c0-1.87-.11-3.71-.13-5.54l.27.27c-4.41.06-8.82.16-13.24.17l-13.24.06.5-.5,0,11.19-.45-.44c2.18,0,4.36,0,6.55.05l6.58.11Z" style="fill:#ebebeb"></path><path d="M412.37,158l-13.13.28-6.66.11c-2.22.05-4.46,0-6.69.06h-.45V158l-.05-11.19v-.5h.5l13.24.07c4.41,0,8.82.11,13.24.16h.27v.27c0,1.9-.09,3.79-.13,5.66Zm0,0-.14-5.65c-.05-1.86-.12-3.71-.13-5.54l.27.28c-4.42,0-8.83.15-13.24.16l-13.24.06.5-.5L386.33,158l-.44-.44c2.18,0,4.36,0,6.54.05l6.58.11Z" style="fill:#ebebeb"></path><path d="M458.66,310l-13.13.28-6.66.11c-2.22,0-4.46,0-6.69.05h-.45V310l-.05-11.19v-.51h.5l13.24.06c4.41,0,8.83.11,13.24.16h.27v.27c0,1.9-.08,3.78-.13,5.65Zm0,0-.14-5.66c0-1.86-.12-3.7-.13-5.53l.27.27c-4.41.05-8.83.16-13.24.16l-13.24.07.5-.5L432.62,310l-.44-.45c2.18,0,4.36,0,6.54.06l6.58.11Z" style="fill:#ebebeb"></path><path d="M443.89,56.92l-13.13.27-6.66.12c-2.22,0-4.46,0-6.69,0H417v-.44l0-11.19v-.51h.51l13.24.06c4.41,0,8.82.11,13.24.16h.27v.27c0,1.89-.09,3.78-.13,5.65Zm0,0-.14-5.66c-.05-1.86-.12-3.7-.14-5.53l.28.27c-4.42,0-8.83.16-13.24.16l-13.24.07.5-.5-.06,11.19-.44-.45c2.18,0,4.35,0,6.54.05l6.58.12Z" style="fill:#ebebeb"></path><path d="M458.66,71l-13.13.27-6.66.12c-2.22,0-4.46,0-6.69,0h-.45V71l-.05-11.19v-.51h.5l13.24.06c4.41,0,8.83.11,13.24.16h.27v.27c0,1.89-.08,3.78-.13,5.65Zm0,0-.14-5.66c0-1.86-.12-3.7-.13-5.53l.27.27c-4.41,0-8.83.16-13.24.16l-13.24.06.5-.49L432.62,71l-.44-.45c2.18,0,4.36,0,6.54,0l6.58.12Z" style="fill:#ebebeb"></path><path d="M82.59,56.92l-13.12.27-6.66.12c-2.23,0-4.47,0-6.7,0h-.44v-.44l-.06-11.19v-.51h.5l13.24.06c4.42,0,8.83.11,13.24.16h.28v.27c0,1.89-.09,3.78-.13,5.65Zm0,0-.14-5.66c0-1.86-.11-3.7-.13-5.53l.27.27c-4.41,0-8.82.16-13.24.16l-13.24.07.5-.5,0,11.19-.45-.45c2.18,0,4.36,0,6.55.05l6.58.12Z" style="fill:#ebebeb"></path><rect x="60.45" y="67.77" width="60.15" height="72.96" style="fill:#dbdbdb"></rect><rect x="67.32" y="74.43" width="46.41" height="59.65" style="fill:#fff"></rect><rect x="67.32" y="74.43" width="1.81" height="59.65" style="fill:#c7c7c7"></rect><rect x="120.6" y="67.77" width="1.81" height="72.96" style="fill:#c7c7c7"></rect><rect x="91.56" y="88.22" width="10.94" height="32.6" transform="translate(194.07 209.04) rotate(180)" style="fill:#dbdbdb"></rect><path d="M107.78,99.12H77.6v-17h30.18Zm-29.18-1h28.18v-15H78.6Z" style="fill:#ebebeb"></path><rect x="238.29" y="107.77" width="60.15" height="72.96" style="fill:#dbdbdb"></rect><rect x="245.16" y="114.43" width="46.41" height="59.65" style="fill:#fff"></rect><rect x="245.16" y="114.43" width="1.81" height="59.65" style="fill:#c7c7c7"></rect><rect x="298.44" y="107.77" width="1.81" height="72.96" style="fill:#c7c7c7"></rect><rect x="260.71" y="128.22" width="10.94" height="32.6" style="fill:#dbdbdb"></rect><path d="M285.62,139.12H255.44v-17h30.18Zm-29.18-1h28.18v-15H256.44Z" style="fill:#ebebeb"></path><rect x="149.37" y="87.77" width="60.15" height="72.96" style="fill:#dbdbdb"></rect><rect x="156.24" y="94.43" width="46.41" height="59.65" style="fill:#fff"></rect><rect x="156.24" y="94.43" width="1.81" height="59.65" style="fill:#c7c7c7"></rect><rect x="209.52" y="87.77" width="1.81" height="72.96" style="fill:#c7c7c7"></rect><rect x="174.95" y="109.85" width="9.37" height="23.7" style="fill:#ebebeb"></rect><path d="M194.7,141.09H168.51V123.75H194.7Zm-25.19-1H193.7V124.75H169.51Z" style="fill:#dbdbdb"></path></g><g id="freepik--Floor--inject-32"><polygon points="39.2 453.33 91.9 453.08 144.6 453 250 452.83 355.4 453 408.1 453.08 460.81 453.33 408.1 453.57 355.4 453.66 250 453.83 144.6 453.66 91.9 453.57 39.2 453.33" style="fill:#263238"></polygon></g><g id="freepik--Character--inject-32"><polygon points="146.76 349.68 104.58 349.68 80.43 229.31 119.06 211.57 146.76 349.68" style="fill:#37474f"></polygon><polygon points="260.62 349.68 146.76 349.68 119.06 211.57 232.92 211.57 260.62 349.68" style="fill:#455a64"></polygon><rect x="60.45" y="285.1" width="64.65" height="132.65" style="fill:#37474f"></rect><polygon points="291.65 417.75 273.99 417.75 247.67 285.1 291.65 285.1 291.65 417.75" style="fill:#37474f"></polygon><rect x="125.1" y="285.1" width="35.52" height="132.65" style="fill:#455a64"></rect><rect x="291.65" y="285.1" width="35.52" height="132.65" style="fill:#455a64"></rect><rect x="160.62" y="349.68" width="131.03" height="68.07" style="fill:#455a64"></rect><rect x="160.62" y="320.25" width="131.03" height="29.7" style="fill:#455a64"></rect><path d="M133.81,285.1l13.4-.24,13.41-.17H161v.41l.15,15.52.06,15.53c0,10.35.07,20.7,0,31s-.05,20.7-.18,31.05-.23,20.7-.45,31.05q-.33-15.53-.45-31.05c-.12-10.35-.14-20.7-.17-31.05s0-20.69,0-31l.06-15.53.15-15.52.4.41-13.41-.17Z" style="fill:#263238"></path><path d="M291.65,285.1c.28,10.39.41,20.77.52,31.16l.15,31.16-.15,31.17L292,394.17l-.33,15.58-.33-15.58-.18-15.58L291,347.42l.16-31.16C291.25,305.87,291.38,295.49,291.65,285.1Z" style="fill:#263238"></path><path d="M291.65,349.68c-11.49.27-23,.4-34.47.51l-34.48.16-27.6-.16L177.86,350l-17.24-.33,17.24-.33,17.24-.19,27.6-.15,34.48.16C268.67,349.27,280.16,349.4,291.65,349.68Z" style="fill:#263238"></path><path d="M291.65,320.25c-11.49.28-23,.41-34.47.51l-34.48.16-27.6-.15-17.24-.19-17.24-.33,17.24-.33,17.24-.18,27.6-.16,34.48.16C268.67,319.84,280.16,320,291.65,320.25Z" style="fill:#263238"></path><polygon points="85.02 417.75 84.14 428.5 82.1 453.33 72.74 453.33 70.7 428.5 69.83 417.75 85.02 417.75" style="fill:#c7c7c7"></polygon><polygon points="69.83 417.75 85.02 417.75 84.14 428.5 70.7 428.5 69.83 417.75" style="fill:#a6a6a6"></polygon><polygon points="150.46 417.75 149.59 428.5 147.54 453.33 138.18 453.33 136.14 428.5 135.27 417.75 150.46 417.75" style="fill:#c7c7c7"></polygon><polygon points="135.27 417.75 150.46 417.75 149.59 428.5 136.14 428.5 135.27 417.75" style="fill:#a6a6a6"></polygon><polygon points="252.13 417.75 251.25 428.5 249.21 453.33 239.85 453.33 237.81 428.5 236.93 417.75 252.13 417.75" style="fill:#c7c7c7"></polygon><polygon points="236.93 417.75 252.13 417.75 251.25 428.5 237.81 428.5 236.93 417.75" style="fill:#a6a6a6"></polygon><polygon points="317.58 417.75 316.71 428.5 314.66 453.33 305.3 453.33 303.26 428.5 302.39 417.75 317.58 417.75" style="fill:#c7c7c7"></polygon><polygon points="317.58 417.75 316.71 428.5 303.26 428.5 302.39 417.75 317.58 417.75" style="fill:#a6a6a6"></polygon><path d="M337,370.66c-2.68-.28-70.66-31.72-72.44-34.48-.22-.32,6.34-15,6.34-15,.24-30.51-.47-58.48-.47-58.48l47.77,21.41-1,49.74s7.72,8.8,14,16.28v0c3.86,4.59,7.18,8.69,7.81,9.93C340.65,363.35,339.64,371,337,370.66Z" style="fill:#dd6a57"></path><path d="M337.33,371.23c-2.74-.28-72.21-32.37-74-35.2-.22-.32,3.11-6.42,6.47-15.29.44-1.16.07-9.05.71-17.16l47.6,19.4-1,10.69s7.9,9,14.31,16.61c0,0,0,0,0,0,3.95,4.71,7.35,8.89,8,10.15C341.09,363.76,340.06,371.53,337.33,371.23Z" style="fill:#FFAE48"></path><path d="M276.66,338.4a12,12,0,0,0,1-2.79,12.56,12.56,0,0,0,.05-5.91,11.74,11.74,0,0,0-2.81-5.24,14.24,14.24,0,0,0-4.93-3.31c-.1,0-.17.12-.06.16,3.47,1.44,6,5.17,6.73,8.79a12,12,0,0,1-.2,5.4,12.6,12.6,0,0,1-1,2.49,13.07,13.07,0,0,1-.67,1.14c-.26.37-.52.62-.45,1.1a.44.44,0,0,0,.49.35C275.7,340.5,276.32,339.05,276.66,338.4Z" style="opacity:0.2"></path><path d="M334.58,355.77a9,9,0,0,0-5.08-2.13,23.61,23.61,0,0,0-5.88-.05,23.2,23.2,0,0,0-5.63,1.33,24.66,24.66,0,0,0-2.58,1.14A9.39,9.39,0,0,0,313,357.6a.17.17,0,0,0,.16.28,25.38,25.38,0,0,0,2.33-1c.87-.36,1.75-.69,2.65-1a30,30,0,0,1,5.38-1.14,17.75,17.75,0,0,1,10.6,1.64A.39.39,0,0,0,334.58,355.77Z" style="opacity:0.2"></path><path d="M315.7,329.78c-11.37-4.5-40.51-16.1-43.7-17.46-.11,0-.16.12-.06.17,11,5.35,40.28,16.73,43.6,17.76A.25.25,0,0,0,315.7,329.78Z" style="opacity:0.2"></path><path d="M273.85,310.76a.61.61,0,0,0,.15-.17l.09-.24.17-.45c.12-.32.23-.64.32-1,.19-.64.35-1.28.49-1.93,0-.09-.13-.13-.16,0-.2.62-.43,1.24-.67,1.85l-.35.9-.18.47a1,1,0,0,0-.12.47A.16.16,0,0,0,273.85,310.76Z" style="opacity:0.2"></path><path d="M278,312.52a.42.42,0,0,0,.14-.18,1.6,1.6,0,0,0,.1-.23l.17-.45c.12-.32.23-.64.32-1,.19-.64.35-1.28.49-1.93,0-.09-.13-.14-.16-.05-.2.63-.44,1.24-.68,1.86-.11.3-.22.6-.34.9l-.18.47a1,1,0,0,0-.12.47A.17.17,0,0,0,278,312.52Z" style="opacity:0.2"></path><path d="M282.08,314.28a.52.52,0,0,0,.15-.18,2.44,2.44,0,0,0,.1-.24l.17-.45c.12-.32.23-.64.32-1,.19-.63.35-1.28.49-1.92,0-.09-.13-.14-.16,0-.2.62-.44,1.24-.68,1.85l-.34.9c-.06.16-.12.32-.19.48a1.08,1.08,0,0,0-.11.47A.16.16,0,0,0,282.08,314.28Z" style="opacity:0.2"></path><path d="M286.2,316a.49.49,0,0,0,.15-.17,2.44,2.44,0,0,0,.1-.24c.05-.15.11-.3.17-.45.11-.32.23-.64.32-1,.19-.64.34-1.28.49-1.93,0-.09-.13-.13-.16,0-.21.62-.44,1.24-.68,1.85l-.34.9c-.06.16-.12.32-.19.47a1.15,1.15,0,0,0-.11.47A.15.15,0,0,0,286.2,316Z" style="opacity:0.2"></path><path d="M290.32,317.79a.49.49,0,0,0,.15-.17c0-.08.06-.16.1-.24s.11-.3.17-.45c.11-.32.22-.64.32-1,.19-.64.34-1.28.49-1.93,0-.09-.13-.14-.16,0-.21.63-.44,1.25-.68,1.86-.12.3-.23.6-.34.9s-.12.31-.19.47a1.08,1.08,0,0,0-.11.47A.15.15,0,0,0,290.32,317.79Z" style="opacity:0.2"></path><path d="M294.44,319.55a.52.52,0,0,0,.15-.18,2.18,2.18,0,0,0,.09-.23c.06-.15.12-.31.17-.46q.18-.48.33-1c.19-.64.34-1.29.49-1.93,0-.09-.13-.14-.16-.05-.21.63-.44,1.24-.68,1.85-.12.3-.23.6-.34.9l-.19.48a1.08,1.08,0,0,0-.11.47A.16.16,0,0,0,294.44,319.55Z" style="opacity:0.2"></path><path d="M298.56,321.31a.63.63,0,0,0,.15-.18,2.34,2.34,0,0,0,.09-.24c.06-.15.12-.3.17-.45.12-.32.23-.64.33-1,.18-.63.34-1.28.49-1.93,0-.09-.13-.13-.16,0-.21.62-.44,1.24-.68,1.85-.12.3-.23.6-.34.9l-.19.48a1.07,1.07,0,0,0-.11.46A.16.16,0,0,0,298.56,321.31Z" style="opacity:0.2"></path><path d="M302.68,323.06a.49.49,0,0,0,.15-.17,2.34,2.34,0,0,0,.09-.24c.06-.15.12-.3.17-.45.12-.32.23-.64.33-1,.18-.64.34-1.28.49-1.93,0-.09-.13-.13-.16-.05-.21.63-.44,1.25-.68,1.86-.12.3-.23.6-.34.9s-.13.31-.19.47a1.09,1.09,0,0,0-.12.47A.16.16,0,0,0,302.68,323.06Z" style="opacity:0.2"></path><path d="M306.8,324.82a.65.65,0,0,0,.15-.18l.09-.23c.06-.15.12-.3.17-.45.12-.33.23-.65.33-1,.18-.64.34-1.28.49-1.93,0-.09-.13-.14-.16-.05-.21.63-.44,1.24-.68,1.86-.12.29-.23.59-.34.89s-.13.32-.19.48a1,1,0,0,0-.12.47A.17.17,0,0,0,306.8,324.82Z" style="opacity:0.2"></path><path d="M310.92,326.58a.84.84,0,0,0,.15-.18l.09-.24c.06-.15.12-.3.17-.45.12-.32.23-.64.33-1,.18-.63.34-1.28.48-1.93a.08.08,0,0,0-.15,0c-.21.62-.44,1.24-.68,1.85l-.35.9-.18.48a1,1,0,0,0-.12.46A.17.17,0,0,0,310.92,326.58Z" style="opacity:0.2"></path><path d="M315,328.33a.61.61,0,0,0,.15-.17l.09-.24c.06-.15.12-.3.17-.45.12-.32.23-.64.33-1,.18-.64.34-1.28.48-1.93a.08.08,0,0,0-.15,0c-.21.62-.44,1.24-.68,1.85l-.35.9-.18.47a1,1,0,0,0-.12.47A.16.16,0,0,0,315,328.33Z" style="opacity:0.2"></path><path d="M269.76,303.73l50.12,16.08s-.76-64.67-2.07-86.91c-1-17.3-21.8-28.44-40.07-17.39-24.42,14.77-35.57,23-47.23,31.17l-2.21-2-30.9-.61s-2.57,36.55,37.51,48.7c14.48,4.39,34-11,34-10.47C269,284.15,269.76,303.73,269.76,303.73Z" style="fill:#263238"></path><path d="M269.13,282.53c0-3.37.42-6.77.62-10.14s.38-6.51.59-9.77c.42-6.58.74-13.18,1.24-19.75.28-3.69.68-7.37,1.06-11.05,0-.09-.13-.12-.14,0q-.84,5.07-1.53,10.17c0-.63,0-1.26-.05-1.89-.09-1.71-.21-3.41-.32-5.12a.06.06,0,0,0-.11,0c.06,1.68.12,3.36.21,5,0,.84.13,1.69.19,2.53a231.47,231.47,0,0,0-2.19,28.69c0,3.78.27,7.55.24,11.33C268.94,282.67,269.13,282.65,269.13,282.53Z" style="fill:#37474f"></path><path d="M274.91,296c-.52-4.58-.66-17.74-.78-22.32-.23-9.26-.06-18.52.35-27.77.24-5.23.61-10.44,1-15.66,0,0-.05-.05-.05,0a274,274,0,0,0-2.23,27.59c-.33,9.24.62,35,1.52,38.19C274.76,296.09,274.93,296.08,274.91,296Z" style="fill:#37474f"></path><path d="M269.4,234.41c-7.58,5.18-15.22,10.26-22.81,15.42q-5.76,3.91-11.49,7.85c-1.8,1.24-3.58,2.51-5.4,3.71a10.79,10.79,0,0,1-5.58,2,32.38,32.38,0,0,1-6.86-.87c-2.6-.46-5.21-.86-7.8-1.37-.11,0-.14.16,0,.19,2.3.46,4.59,1,6.88,1.52a61.58,61.58,0,0,0,6.3,1.26,10.09,10.09,0,0,0,5.53-.8,37.53,37.53,0,0,0,5.28-3.38q11.52-8.06,23-16.22c4.34-3.09,8.67-6.21,13-9.27C269.45,234.43,269.42,234.39,269.4,234.41Z" style="fill:#37474f"></path><path d="M272,296.66c3,.88,6,2.06,9,3.1l9,3.11c6,2.06,26.69,8.52,28.37,8.76.11,0,.15-.15.06-.2-1.35-.72-14.74-5.28-17.76-6.27-6-2-12.14-3.74-18.22-5.58-1.74-.53-3.48-1-5.23-1.53s-3.5-1-5.21-1.55A.08.08,0,1,0,272,296.66Z" style="fill:#37474f"></path><path d="M261.23,476.62c-2.75,0-75-25.34-77.05-28-.25-.3,2-6.85,5-15.83,1.77-5.28,4.41-11.69,7.3-18.21,7.7-17.35,17.25-35.54,17.25-35.54l46.93,18.51L243.43,430l-5.9,11.12s8.71,8.19,15.82,15.18l0,0c4.38,4.3,8.16,8.14,8.92,9.34C264.26,468.84,264,476.66,261.23,476.62Z" style="fill:#dd6a57"></path><path d="M261.23,476.62c-2.75,0-75-25.34-77.05-28-.25-.3,2-6.85,5-15.83,1.77-5.28,4.41-11.69,7.3-18.21l45.59,18-4.53,8.54s8.71,8.19,15.82,15.18l0,0c4.38,4.3,8.16,8.14,8.92,9.34C264.26,468.84,264,476.66,261.23,476.62Z" style="fill:#FFAE48"></path><path d="M197.71,449.73a11.9,11.9,0,0,0,.77-2.88A12.6,12.6,0,0,0,198,441a11.75,11.75,0,0,0-3.3-5,14.21,14.21,0,0,0-5.23-2.82c-.1,0-.15.13,0,.16,3.59,1.11,6.5,4.57,7.54,8.11a12,12,0,0,1,.32,5.4,13.16,13.16,0,0,1-.73,2.56,9.51,9.51,0,0,1-.57,1.21c-.21.39-.45.67-.33,1.13a.43.43,0,0,0,.52.3C197,451.91,197.44,450.4,197.71,449.73Z" style="opacity:0.2"></path><path d="M257,461.5a9.08,9.08,0,0,0-5.26-1.64,24,24,0,0,0-5.86.51,22.94,22.94,0,0,0-5.47,1.86,26.77,26.77,0,0,0-2.46,1.38,9.79,9.79,0,0,0-2.27,1.76.17.17,0,0,0,.19.27c.77-.31,1.48-.85,2.22-1.24a27.07,27.07,0,0,1,2.55-1.22,30.07,30.07,0,0,1,5.24-1.65,17.72,17.72,0,0,1,10.71.63A.39.39,0,0,0,257,461.5Z" style="opacity:0.2"></path><path d="M238.17,439.17c-11.37-4.47-40.54-16-43.73-17.38-.1-.05-.15.12-.05.17,11,5.33,40.31,16.66,43.62,17.69A.25.25,0,0,0,238.17,439.17Z" style="opacity:0.2"></path><path d="M196.29,420.23a.65.65,0,0,0,.15-.18l.09-.24c.06-.15.12-.3.17-.45.12-.32.23-.64.32-1,.19-.63.35-1.28.49-1.93,0-.09-.13-.13-.16,0-.2.62-.43,1.24-.67,1.85l-.35.9-.18.48a1,1,0,0,0-.12.47A.17.17,0,0,0,196.29,420.23Z" style="opacity:0.2"></path><path d="M200.41,422a.52.52,0,0,0,.15-.18,1.7,1.7,0,0,0,.09-.24c.06-.15.12-.3.17-.45.12-.32.23-.64.33-1,.18-.63.34-1.28.48-1.93,0-.09-.13-.13-.16,0-.2.62-.43,1.24-.67,1.85-.12.3-.23.6-.34.9l-.19.48a1.08,1.08,0,0,0-.11.47A.16.16,0,0,0,200.41,422Z" style="opacity:0.2"></path><path d="M204.53,423.73a.52.52,0,0,0,.15-.18,2.29,2.29,0,0,0,.1-.23l.16-.46c.12-.32.23-.64.33-1,.18-.63.34-1.28.48-1.93a.08.08,0,0,0-.15,0c-.21.62-.44,1.24-.68,1.85-.12.3-.23.6-.34.9s-.12.32-.19.48a1.08,1.08,0,0,0-.11.47A.16.16,0,0,0,204.53,423.73Z" style="opacity:0.2"></path><path d="M208.66,425.48a.49.49,0,0,0,.14-.18,2.29,2.29,0,0,0,.1-.23c.06-.15.11-.3.17-.46.11-.32.22-.64.32-1,.19-.64.34-1.29.49-1.93,0-.1-.13-.14-.16-.05-.21.62-.44,1.24-.68,1.85-.12.3-.23.6-.34.9s-.12.32-.19.48a1.08,1.08,0,0,0-.11.47A.17.17,0,0,0,208.66,425.48Z" style="opacity:0.2"></path><path d="M212.78,427.23a.54.54,0,0,0,.15-.18l.09-.23.17-.45c.12-.33.23-.65.32-1,.19-.64.34-1.29.49-1.93,0-.09-.13-.14-.16-.05-.21.63-.44,1.24-.68,1.86-.11.29-.22.59-.34.89l-.18.48a1,1,0,0,0-.12.47A.17.17,0,0,0,212.78,427.23Z" style="opacity:0.2"></path><path d="M216.9,429a.54.54,0,0,0,.15-.18l.09-.23c.06-.15.12-.3.17-.45.12-.32.23-.65.32-1,.19-.64.35-1.29.49-1.93,0-.09-.13-.14-.16-.05-.2.63-.44,1.24-.67,1.86-.12.29-.23.6-.35.9l-.18.47a1,1,0,0,0-.12.47A.17.17,0,0,0,216.9,429Z" style="opacity:0.2"></path><path d="M221,430.73a.44.44,0,0,0,.15-.18,1.57,1.57,0,0,0,.09-.23c.06-.15.12-.3.17-.45.12-.32.23-.65.33-1,.18-.64.34-1.29.48-1.93,0-.09-.13-.14-.16-.05-.2.63-.43,1.24-.67,1.86-.12.3-.23.6-.34.9-.07.15-.13.31-.19.47a1,1,0,0,0-.11.47A.15.15,0,0,0,221,430.73Z" style="opacity:0.2"></path><path d="M225.14,432.48a.49.49,0,0,0,.15-.17c0-.08.06-.16.1-.24l.16-.45c.12-.32.23-.64.33-1,.18-.64.34-1.28.48-1.93,0-.09-.12-.14-.15-.05-.21.63-.44,1.24-.68,1.86-.12.3-.23.6-.34.9-.06.15-.13.31-.19.47a1.08,1.08,0,0,0-.11.47A.15.15,0,0,0,225.14,432.48Z" style="opacity:0.2"></path><path d="M229.27,434.23a.58.58,0,0,0,.14-.17,2.44,2.44,0,0,0,.1-.24c.05-.15.11-.3.17-.45.11-.32.22-.64.32-1,.19-.64.34-1.28.48-1.93,0-.09-.12-.14-.15-.05-.21.63-.44,1.24-.68,1.86-.12.3-.23.6-.34.9s-.12.31-.19.47a1.08,1.08,0,0,0-.11.47A.16.16,0,0,0,229.27,434.23Z" style="opacity:0.2"></path><path d="M233.39,436a.61.61,0,0,0,.15-.17l.09-.24.17-.45c.12-.32.23-.64.32-1,.19-.64.34-1.28.49-1.93,0-.09-.13-.14-.16-.05-.21.63-.44,1.24-.68,1.86l-.34.9-.18.47a1,1,0,0,0-.12.47A.16.16,0,0,0,233.39,436Z" style="opacity:0.2"></path><path d="M237.51,437.73a.61.61,0,0,0,.15-.17l.09-.24c.06-.15.12-.3.17-.45.12-.32.23-.64.32-1,.19-.64.35-1.28.49-1.93,0-.09-.13-.14-.16-.05-.21.63-.44,1.25-.67,1.86l-.35.9-.18.47a1,1,0,0,0-.12.47A.16.16,0,0,0,237.51,437.73Z" style="opacity:0.2"></path><path d="M248.55,431,195.74,410s32.66-72.8,32-74.22c-2.37-4.91-48.82-15.08-62.25-35.66-14.22-21.79,7.67-56.56,7.67-56.56l45.35,1.05s-3.93,26.55-2.26,28.66c1.1,1.4,61,25.15,68.31,40.49C295.7,337.17,248.55,431,248.55,431Z" style="fill:#263238"></path><path d="M287.23,321.9a22.56,22.56,0,0,0-2.25-7,25.73,25.73,0,0,0-4.88-6.35,90.35,90.35,0,0,0-13.38-10.38,167.75,167.75,0,0,0-15-8.88c-5.23-2.74-10.57-5.26-16-7.67s-10.83-4.57-16.26-6.82l-2.57-1.06c3.17-.54,6.33-1.14,9.49-1.73a.15.15,0,0,0,0-.29,47.79,47.79,0,0,0-18,3.07c-.09,0-.07.18,0,.17,2.71-.3,5.39-.71,8.07-1.16,4.89,2.17,9.75,4.4,14.62,6.63,5.26,2.41,10.49,4.89,15.61,7.6,10.14,5.36,20.1,11.25,29,18.56,4,3.32,7.66,7.16,9.23,12.24,1.46,4.72,1.12,9.79.22,14.58a146.35,146.35,0,0,1-4.33,15.83q-2.76,8.89-5.78,17.69c-2,5.86-13.41,36-14.17,37.21-.11.18.17.36.3.2.9-1.15,18.36-44.62,20.21-50.63,1.71-5.54,3.47-11.1,4.76-16.76C287.29,332.07,288,326.91,287.23,321.9Z" style="fill:#37474f"></path><path d="M235.74,330.59a28.14,28.14,0,0,0-4.62-1.88l-5.21-2-10.3-4c-6.59-2.54-13.22-5-19.77-7.65-11.16-4.53-23-11-27.4-22.93a22.54,22.54,0,0,1-1.41-8.64,65.86,65.86,0,0,1,1.51-10.64A137.49,137.49,0,0,1,174.43,252c.61-1.66,1.29-3.3,2-4.94a.09.09,0,0,0-.16-.07,145,145,0,0,0-6.93,20.17c-.89,3.43-1.65,6.91-2.26,10.41a32.32,32.32,0,0,0-.57,9.71c1.47,11.82,11.37,20.14,21.42,25.14,6.18,3.07,12.74,5.37,19.19,7.83L227.43,328l5.08,1.95c1.37.52,3.94,1,3.85,2.91a5.89,5.89,0,0,1-.69,2.15c-.39.88-.79,1.76-1.18,2.63l-2.31,5.12q-4.49,10-8.93,19.94c-6,13.4-6.85,15.31-12.75,28.74-.73,1.67-1.47,3.34-2.2,5,0,.09.09.15.13.07,6.06-13.36,7.26-15.11,13.3-28.48q4.56-10.1,9-20.22l4.42-10a21.23,21.23,0,0,0,1.8-4.43A2.61,2.61,0,0,0,235.74,330.59Z" style="fill:#37474f"></path><path d="M249.64,418.59c-2.84-1.36-5.65-2.78-8.55-4s-5.83-2.41-8.76-3.56q-8.75-3.43-17.6-6.54c-3.33-1.17-6.7-2.25-10-3.47-.09,0-.12.14,0,.17,6,2.18,11.83,4.71,17.72,7.1s11.51,4.73,17.3,7c3.26,1.28,6.57,2.39,9.85,3.59C249.68,418.93,249.78,418.66,249.64,418.59Z" style="fill:#37474f"></path><path d="M177.81,274.67a65.62,65.62,0,0,0,8-2.42c2.17-.79,4.39-1.59,6-3.37,3.06-3.47,3.54-8.56,3.43-13,0-.11.17-.12.18,0,.34,4.77,1.24,10.14-2.19,14.11a12.59,12.59,0,0,1-6.49,3.6,44,44,0,0,1-8.84,1.27A.1.1,0,0,1,177.81,274.67Z" style="fill:#37474f"></path><path d="M249.8,215.49l-8.18.5a25.12,25.12,0,0,1-3.17-14.94c.09-1.18-2.45,5.71-1,15.2-8.64.53-20.39,1.24-30.65,1.77-.35-4-.85-7.7-.85-7.7a45.61,45.61,0,0,1-1.38,7.82c-1.41.08-2.78.14-4.1.2a155.45,155.45,0,0,0-1.4-17,54.73,54.73,0,0,1-4.44,17.31c-6.52.26-10.81.32-10.55,0,9.44-11.68,2-17.92,4.41-28,2.92-12.06,13.14-14.34,12.5-23.29-.5-7.29-1.9-20.49,7.21-23.66a17.77,17.77,0,0,1,19.13-4.41c14.77,5,9.84,27.75,11,32.28,1.65,6.49,4.85,8.68,7.45,16s-.6,12.59-.8,17.72S251.43,215.41,249.8,215.49Z" style="fill:#263238"></path><path d="M183.75,217a25.64,25.64,0,0,0,2.93-6.51c.66-2.25.25-4.51-.29-6.85a72.53,72.53,0,0,1-1.46-7.16,18.88,18.88,0,0,1,.44-7.54,16.64,16.64,0,0,1,3.68-6.61,44.27,44.27,0,0,1,5.42-5,26.91,26.91,0,0,0,5-5,13.15,13.15,0,0,0,2.37-6.62,12.34,12.34,0,0,1-1.63,7.09,24.87,24.87,0,0,1-4.8,5.6,55.52,55.52,0,0,0-5,5,15.89,15.89,0,0,0-3.18,6,18.59,18.59,0,0,0-.43,6.83c.22,2.32.74,4.65,1.14,7.06a23.8,23.8,0,0,1,.38,3.71,10.78,10.78,0,0,1-.69,3.74A20.79,20.79,0,0,1,183.75,217Z" style="fill:#263238"></path><path d="M235.89,147.32A36.69,36.69,0,0,1,238.2,156c.48,3,.82,5.91,1.12,8.86l.48,4.4a22,22,0,0,0,.83,4.2,23.76,23.76,0,0,0,4.25,7.39,33,33,0,0,1,2.53,3.8,21,21,0,0,1,1.78,4.3,30.74,30.74,0,0,1,.81,4.53,18.72,18.72,0,0,1-.08,4.61c-.21,1.53-.58,3-.89,4.41a22.46,22.46,0,0,0-.52,4.31,9.1,9.1,0,0,0,3.86,7.39,9.23,9.23,0,0,1-4.78-7.37,22.23,22.23,0,0,1,.21-4.54c.2-1.5.52-2.94.63-4.36a23.87,23.87,0,0,0-1-8.47,20.87,20.87,0,0,0-1.68-3.88,31.36,31.36,0,0,0-2.43-3.58,44.75,44.75,0,0,1-2.57-3.74,18.34,18.34,0,0,1-1.89-4.27,23.48,23.48,0,0,1-.75-4.55c-.14-1.49-.22-3-.3-4.46-.18-3-.31-5.92-.56-8.86A43.21,43.21,0,0,0,235.89,147.32Z" style="fill:#263238"></path><path d="M209.06,143.35c2.2-2,2.47-9.32-.82-12.64-4.52-4.57-14.25.54-12.3,7.51S207.36,144.92,209.06,143.35Z" style="fill:#263238"></path><path d="M198.91,130.62a12.82,12.82,0,0,1,5.9-2,4.8,4.8,0,0,1,4.75,2.81,11.34,11.34,0,0,1,1,2.91,13.24,13.24,0,0,1,.33,3.07,10.58,10.58,0,0,1-1.81,5.94,9.21,9.21,0,0,0,2.63-5.89,12.73,12.73,0,0,0-.18-3.32,11.59,11.59,0,0,0-1-3.18,6,6,0,0,0-2.35-2.53,5.66,5.66,0,0,0-3.38-.61A10.78,10.78,0,0,0,198.91,130.62Z" style="fill:#263238"></path><path d="M216.94,196.75c4.72,19.21,17,43.56,26.57,46.78,6.49,2.19,29.51-14.4,38.13-19.76s-10.72-26.5-15.66-23.08c-7.66,5.3-18,13.08-19.93,12.46-2.42-.77-6-6.46-20.38-22.54C219.6,183.8,214.93,188.57,216.94,196.75Z" style="fill:#dd6a57"></path><path d="M275.25,192.55c4.07-1.43,8.62-3.41,13.13-3.32s8.27,6,8.27,7.75-1.71,12.36-6.22,12.36-1.79-8.18-2-9.12-.34-2.14-1.2-2.05-15.76,7.16-15.76,7.16Z" style="fill:#dd6a57"></path><path d="M275.54,193.18c.26,0,12.36-4.78,16.88-4.69s8.26,6,8.26,7.75-1.7,12.36-6.22,12.36-1.79-8.18-2-9.12-.34-2.13-1.19-2-15.77,7.17-15.77,7.17Z" style="fill:#dd6a57"></path><path d="M292.93,208a5.34,5.34,0,0,1-.75-2.67,9.28,9.28,0,0,1,.16-2.88,15.4,15.4,0,0,0,.55-2.49,5,5,0,0,0-.63-2.39c-.35-.63-1-.41-1.58-.21a20.82,20.82,0,0,0-2.46,1.11c-.86.43-1.72.87-2.57,1.32a21.48,21.48,0,0,0-2.62,1.44c-.06,0,0,.15.05.12a23.53,23.53,0,0,0,2.29-1c.86-.4,1.72-.8,2.59-1.18s1.6-.77,2.41-1.11a2.7,2.7,0,0,1,1.19-.36c.35.08.52.93.59,1.2a4.32,4.32,0,0,1-.15,2.44,12.34,12.34,0,0,0-.47,2.48,6.43,6.43,0,0,0,.19,2.35,9.19,9.19,0,0,0,1.07,1.94C292.85,208.2,293,208.11,292.93,208Z" style="fill:#263238"></path><path d="M261.21,205s12.52-11.41,15.13-13.67c5.22-4.55,27.24-13.54,30.31-13.87s4.18,6-10.77,12.5c-7.87,3.45-9.27,8-9.12,10.46s2.53,7.16,6.74,7,6.93-6.25,10.79-6.93,1.31,6.4-1.41,10.49a25.78,25.78,0,0,1-11.32,8.83c-3.63,1.36-14.89,6.21-14.89,6.21Z" style="fill:#dd6a57"></path><path d="M298.71,204.54c-1.58,1.22-3.37,2.81-5.46,2.89s-3.55-1.32-4.55-3.07a8,8,0,0,1-1.1-5.82,9.73,9.73,0,0,1,2.88-4.71,23.63,23.63,0,0,1,5.69-3.79c.09,0,0-.18-.08-.14-1.94.87-7.95,3.33-9.16,8.64a8.19,8.19,0,0,0,1.17,5.93c.94,1.67,2.29,3.29,4.33,3.45,2.48.2,4.62-1.82,6.41-3.32C298.92,204.53,298.8,204.47,298.71,204.54Z" style="fill:#263238"></path><path d="M227.14,230.29l16.37-23.65A184,184,0,0,0,227.83,191c-9.36-8.29-15.08-5.56-11.41,10.9A107.1,107.1,0,0,0,227.14,230.29Z" style="fill:#FFAE48"></path><polygon points="220.99 202.21 219.53 204.17 217.21 204.95 218.63 206.94 218.65 209.39 220.99 208.66 223.32 209.39 223.34 206.94 224.76 204.95 222.44 204.17 220.99 202.21" style="fill:#fff"></polygon><polygon points="233.23 196 232.12 196.37 233.53 198.36 233.56 200.8 235.9 200.07 238 200.73 233.23 196" style="fill:#fff"></polygon><path d="M218.64,186.56v.87l2.28-.71A4.83,4.83,0,0,0,218.64,186.56Z" style="fill:#fff"></path><polygon points="229.01 218.4 230.43 220.39 230.46 222.85 232.79 222.11 232.81 222.11 235.59 218.07 234.25 217.63 232.79 215.66 231.33 217.63 229.01 218.4" style="fill:#fff"></polygon><path d="M216.43,201.94a106.91,106.91,0,0,0,10.71,28.35L240,211.7c-5.36-7.23-18.07-20.8-21-25.19C215.47,186.83,214.15,191.77,216.43,201.94Z" style="opacity:0.1"></path><path d="M240.06,204.24c-1.42,1.62-2.6,3.45-3.87,5.18s-2.43,3.3-3.59,5q-3.6,5.25-7,10.64c0,.06.06.14.11.08q3.75-5.07,7.37-10.22c1.2-1.71,2.35-3.45,3.5-5.19s2.52-3.52,3.57-5.39C240.2,204.26,240.11,204.19,240.06,204.24Z" style="fill:#263238"></path><path d="M235.22,256.77s-66-2.44-68.12-3.69c0,0,11.35-30.59,24.68-54.14,14.28-25.21,27.54-16.1,32-11.15,5.29,5.87,14.5,26.49,14.87,30.29.61,6.29-5.44,12.51-5.44,12.51Z" style="fill:#FFAE48"></path><polygon points="204.37 190.79 202.91 192.75 200.59 193.53 202.01 195.53 202.03 197.97 204.37 197.24 206.7 197.97 206.72 195.53 208.14 193.53 205.82 192.75 204.37 190.79" style="fill:#fff"></polygon><polygon points="187.74 225.92 186.28 227.89 183.96 228.67 185.38 230.66 185.41 233.11 187.74 232.37 190.07 233.11 190.1 230.66 191.52 228.67 189.2 227.89 187.74 225.92" style="fill:#fff"></polygon><polygon points="220.15 227.89 218.69 229.86 216.37 230.64 217.79 232.63 217.81 235.08 220.15 234.34 222.48 235.08 222.51 232.63 223.93 230.64 221.61 229.86 220.15 227.89" style="fill:#fff"></polygon><path d="M184.54,253l1.14,1.59,5.1.27L192.1,253l-2.31-.77-1.47-2-1.46,2Z" style="fill:#fff"></path><path d="M187.2,207.43h0l.2.27,0,2.44,2.34-.74,2.33.74,0-2.44,1.43-2-2.33-.79-1.45-2-.71,1v0C188.4,205.1,187.8,206.26,187.2,207.43Z" style="fill:#fff"></path><polygon points="204.37 237.5 202.91 239.47 200.59 240.24 202.01 242.24 202.03 244.68 204.37 243.95 206.7 244.68 206.72 242.24 208.14 240.24 205.82 239.47 204.37 237.5" style="fill:#fff"></polygon><path d="M170.32,244.82l2.14-.68,2.34.74,0-2.45,1.42-2-2.32-.77-1-1.29C172,240.75,171.08,242.91,170.32,244.82Z" style="fill:#fff"></path><polygon points="230.19 242.67 231.6 244.66 231.63 247.1 233.97 246.36 234.43 246.52 233.93 239.96 232.5 241.88 230.19 242.67" style="fill:#fff"></polygon><polygon points="220.99 202.21 219.53 204.17 217.21 204.95 218.63 206.94 218.65 209.39 220.99 208.66 223.32 209.39 223.34 206.94 224.76 204.95 222.44 204.17 220.99 202.21" style="fill:#fff"></polygon><path d="M217.32,183.12l1.31,1.87,0,2.44,2.34-.74,2.33.74v-.13A18.36,18.36,0,0,0,217.32,183.12Z" style="fill:#fff"></path><polygon points="205.35 213.81 203.89 215.77 201.57 216.55 202.99 218.54 203.01 220.99 205.35 220.26 207.68 220.99 207.71 218.54 209.13 216.55 206.81 215.77 205.35 213.81" style="fill:#fff"></polygon><path d="M215,254.11l1.35,1.91c1.66.07,3.26.14,4.78.19v-.11l1.41-2-2.31-.78-1.46-2-1.46,2Z" style="fill:#fff"></path><polygon points="232.79 215.66 231.33 217.62 229.01 218.4 230.43 220.4 230.46 222.84 232.79 222.11 235.13 222.84 235.15 220.4 236.57 218.4 234.25 217.62 232.79 215.66" style="fill:#fff"></polygon><path d="M212.57,227.8a57.08,57.08,0,0,1,8.31,1.44c1.35.36,2.67.78,4,1.23.66.22,1.32.42,2,.62a9.12,9.12,0,0,0,2.14.42.05.05,0,0,1,0,.1,14.21,14.21,0,0,1-2.06-.05,16.18,16.18,0,0,1-2-.39c-1.38-.35-2.73-.77-4.1-1.13-2.77-.74-5.53-1.47-8.34-2C212.41,228,212.44,227.79,212.57,227.8Z" style="fill:#263238"></path><path d="M205.63,230.22a62,62,0,0,1,7-.27c1.16,0,2.31.11,3.47.24.55.05,1.1.12,1.65.2s1.2.24,1.8.32a.05.05,0,0,1,0,.1c-.57-.06-1.16,0-1.73,0l-1.74-.06-3.47-.12c-2.31-.1-4.62-.17-6.93-.19A.1.1,0,0,1,205.63,230.22Z" style="fill:#263238"></path><path d="M209.66,187.67c.22,1.22,5.52,9.3,11,9.34,1.78,0,2.27-9.75,2.27-9.75l.2-.71,2.8-10-11.44-8.25-1.66-1.09s-.58,2.77-1.28,6.24c0,.16-.07.32-.1.49s-.09.38-.12.56c-.11.52-.22,1.05-.32,1.58s-.15.79-.22,1.21-.14.84-.22,1.26A67.25,67.25,0,0,0,209.66,187.67Z" style="fill:#dd6a57"></path><path d="M211.56,173.49a20.79,20.79,0,0,0,11.58,13.06l2.8-10-11.44-8.25-1.66-1.09S212.26,170,211.56,173.49Z" style="fill:#263238"></path><path d="M242.21,161.8c.21,18.16-10.65,20.34-14.57,20.38-3.55,0-15.66-.29-17.75-18.33s6.29-23.89,14.42-24.41S242,143.63,242.21,161.8Z" style="fill:#dd6a57"></path><path d="M210.45,167.77a7.67,7.67,0,0,0,4.08-6.38,20,20,0,0,0,7.92-6.83c-.11.38-.92,3.18-1.37,4.59,11.71-2.6,15.06-11.75,15.06-11.75a20.26,20.26,0,0,1,5.39,7.3s-.16-7.24-4-11.95c-4.76-5.78-20.18-6.86-27,1.12C203.08,152.47,210.45,167.77,210.45,167.77Z" style="fill:#263238"></path><path d="M230,156.89a21.37,21.37,0,0,1-6,2.43s0,0,0,0a18.42,18.42,0,0,0,8.47-5.52,17.78,17.78,0,0,0,2.43-3.64,12.31,12.31,0,0,0,1.41-4.55.09.09,0,1,1,.18,0,14.25,14.25,0,0,1-.77,4.67,13.06,13.06,0,0,1-2.49,4,14.81,14.81,0,0,1-3.26,2.63" style="fill:#263238"></path><path d="M212.79,165.21s-3.53-6-6.2-4.74-.31,9.64,2.61,11a3.07,3.07,0,0,0,4.23-1.34Z" style="fill:#dd6a57"></path><path d="M207.33,162.87a0,0,0,0,0,0,.08c2,1,3,3.06,3.64,5.15a1.69,1.69,0,0,0-2.49-.66c-.06,0,0,.13.05.12a1.89,1.89,0,0,1,2,.81,9.6,9.6,0,0,1,.87,1.76c.08.19.43.12.38-.11,0,0,0,0,0-.05C212,167.28,210.2,163.36,207.33,162.87Z" style="fill:#263238"></path><path d="M238.62,158.11a10.5,10.5,0,0,1-1.24-.26,2.12,2.12,0,0,1-1.22-.51.66.66,0,0,1,0-.8,1.62,1.62,0,0,1,1.6-.38,2.39,2.39,0,0,1,1.49.85A.69.69,0,0,1,238.62,158.11Z" style="fill:#263238"></path><path d="M225.4,158.07a10.54,10.54,0,0,0,1.24-.27,2.05,2.05,0,0,0,1.22-.5.65.65,0,0,0,0-.8,1.61,1.61,0,0,0-1.6-.38,2.4,2.4,0,0,0-1.5.84A.7.7,0,0,0,225.4,158.07Z" style="fill:#263238"></path><path d="M228.31,162.58s-.09.07-.09.12c.07,1.25-.06,2.69-1.19,3.14,0,0,0,.07,0,.07C228.42,165.68,228.58,163.76,228.31,162.58Z" style="fill:#263238"></path><path d="M227.17,161.3c-2-.11-2.09,3.94-.22,4S228.86,161.39,227.17,161.3Z" style="fill:#263238"></path><path d="M226.37,161.5c-.36.23-.71.62-1.14.66s-.86-.39-1.17-.8c0-.05-.07,0-.07,0,0,.78.26,1.58,1.09,1.71s1.31-.56,1.51-1.34C226.63,161.63,226.51,161.41,226.37,161.5Z" style="fill:#263238"></path><path d="M235.89,162.43s.09.07.09.12c-.07,1.25.06,2.69,1.18,3.14a0,0,0,0,1,0,.07C235.77,165.53,235.62,163.61,235.89,162.43Z" style="fill:#263238"></path><path d="M237,161.15c2-.1,2.08,3.94.21,4S235.35,161.24,237,161.15Z" style="fill:#263238"></path><path d="M237.88,161.41c.33.21.65.59,1,.61s.77-.42,1-.84c0-.05.06,0,.07,0,0,.77-.22,1.58-1,1.74s-1.18-.51-1.37-1.28C237.65,161.54,237.76,161.32,237.88,161.41Z" style="fill:#263238"></path><path d="M228.61,172.87c.28.31.55.73,1,.8a3.39,3.39,0,0,0,1.37-.24s.08,0,.05.07a1.69,1.69,0,0,1-1.63.58,1.34,1.34,0,0,1-.92-1.16A.07.07,0,0,1,228.61,172.87Z" style="fill:#263238"></path><path d="M233.87,168.36s.25,1.87.24,2.76c0,.08-.21.12-.51.13h0a4.16,4.16,0,0,1-4.06-1.58c-.07-.09.05-.18.13-.12a6.31,6.31,0,0,0,3.82,1.11c.07-.24-.53-3.19-.39-3.2a7.63,7.63,0,0,1,2,.46c-.41-3.91-1.44-7.73-1.79-11.64a.12.12,0,0,1,.23-.05A62.93,62.93,0,0,1,236,168.68C236,169.18,234.22,168.51,233.87,168.36Z" style="fill:#263238"></path><path d="M233.47,170.83a5.1,5.1,0,0,1-1.93,1.72,2.26,2.26,0,0,1-1.39.18c-1-.2-1.11-1.12-1-1.92a5.15,5.15,0,0,1,.37-1.24A6.64,6.64,0,0,0,233.47,170.83Z" style="fill:#263238"></path><path d="M231.54,172.55a2.26,2.26,0,0,1-1.39.18c-1-.2-1.11-1.12-1-1.92A2.38,2.38,0,0,1,231.54,172.55Z" style="fill:#ff9bbc"></path><path d="M198.15,202c3.33,19.59,18.47,58.7,27,62.14,12.08,4.87,50.81-7.83,59.26-14,3.36-2.47-11.91-27.13-16.24-26-14.9,3.72-30.41,6.75-31.68,6.1,0,0-15.63-21.47-24.83-34C200.12,180.35,196.65,193.21,198.15,202Z" style="fill:#dd6a57"></path><path d="M284.41,250.13c1.91-.69,15.1-10.26,19-14.75a57.82,57.82,0,0,0,10.13-15.72c3.91-9.11,5.75-15.78,4.81-18.76-1.09-3.47-1.4-4-10.52,11.08-5.16,8.56-10.08,9.52-14.34,9.44a65.54,65.54,0,0,0-30.29,6.78S277,252.75,284.41,250.13Z" style="fill:#dd6a57"></path><path d="M326.73,191.36l-25.38,27a2.74,2.74,0,0,1-2.84.67L283,212.32a1.17,1.17,0,0,1-.3-2l25.37-27a2.77,2.77,0,0,1,2.85-.67l15.52,6.68A1.17,1.17,0,0,1,326.73,191.36Z" style="fill:#37474f"></path><path d="M325,188.74l-15.53-6.68a2.74,2.74,0,0,0-2.84.68l-25.37,27a1.17,1.17,0,0,0,.3,2l15.52,6.68a2.75,2.75,0,0,0,2.85-.68l25.37-27A1.17,1.17,0,0,0,325,188.74Zm-25.27,27.73a2.55,2.55,0,0,1-2.62.68l-13.89-6c-.78-.33-.87-1.18-.2-1.89l23.63-25.1c1.36-1.45,2.06-1.25,2.84-.91l2.78,1.2c.16.06.15.28,0,.47l-.08.08c-.42.45-.13.58.23.73l6.43,2.77a.78.78,0,0,0,1.08-.17l.07-.08a.62.62,0,0,1,.63-.22l2.78,1.19c.78.34,1.23.8,0,2.12Z" style="fill:#263238"></path><path d="M317,187l-1.76-.75a.08.08,0,0,1,0-.14h0a.21.21,0,0,1,.2-.05l1.75.76a.08.08,0,0,1,0,.14h0A.17.17,0,0,1,317,187Z" style="fill:#fff"></path><line x1="284.55" y1="207.69" x2="284.5" y2="207.67" style="fill:none"></line><path d="M323.39,191.36l-23.63,25.11a2.55,2.55,0,0,1-2.62.68l-13.89-6c-.78-.33-.87-1.18-.2-1.89l23.63-25.1c1.36-1.45,2.06-1.25,2.84-.91l2.78,1.2c.16.06.15.28,0,.47l-.08.08c-.42.45-.13.58.23.73l6.43,2.77a.78.78,0,0,0,1.08-.17l.07-.08a.62.62,0,0,1,.63-.22l2.78,1.19C324.19,189.58,324.64,190,323.39,191.36Z" style="fill:#fff"></path><path d="M323.39,191.36l-1.76,1.88-16.71-7.19,1.76-1.87c1.36-1.45,2.06-1.25,2.84-.91l2.78,1.2c.16.06.15.28,0,.47l-.08.08c-.42.45-.13.58.23.73l6.43,2.77a.78.78,0,0,0,1.08-.17l.08-.08a.6.6,0,0,1,.62-.22l2.78,1.19C324.19,189.58,324.64,190,323.39,191.36Z" style="fill:#FFAE48"></path><polygon points="307.47 185.87 307.35 185.26 308.21 185.09 308.22 185.19 307.51 185.33 307.61 185.83 307.47 185.87" style="fill:#fff"></polygon><path d="M321.81,191.26a.19.19,0,0,1-.18,0,.08.08,0,0,1,0-.13.2.2,0,0,1,.18,0A.08.08,0,0,1,321.81,191.26Z" style="fill:#fff"></path><path d="M321.53,191.55a.18.18,0,0,1-.17,0,.08.08,0,0,1,0-.13.18.18,0,0,1,.17,0A.07.07,0,0,1,321.53,191.55Z" style="fill:#fff"></path><path d="M321.26,191.84a.18.18,0,0,1-.17,0,.07.07,0,0,1,0-.12.16.16,0,0,1,.17,0A.08.08,0,0,1,321.26,191.84Z" style="fill:#fff"></path><g id="freepik--u5Zjqx--inject-32"><path d="M311.29,184.82h-.08a.25.25,0,0,0-.17-.2.49.49,0,0,0-.34,0v-.06h.18l.13,0,.06,0h0l0,0,.07.06a.21.21,0,0,1,0,.06.09.09,0,0,1,0,.06v0Z" style="fill:#fff"></path><path d="M310.71,184.73v-.06a.49.49,0,0,1,.24,0,.25.25,0,0,1,.19.19h-.08a.18.18,0,0,0-.11-.13A.39.39,0,0,0,310.71,184.73Z" style="fill:#fff"></path><path d="M311,184.89l-.08,0a.1.1,0,0,0-.06-.07.23.23,0,0,0-.12,0v-.05C310.85,184.75,311,184.8,311,184.89Z" style="fill:#fff"></path><path d="M310.83,184.92a.1.1,0,0,1-.07,0s0,0,0-.05a.07.07,0,0,1,.07,0S310.85,184.9,310.83,184.92Z" style="fill:#fff"></path></g><path d="M308.6,183.76a.19.19,0,0,1,.2,0,.09.09,0,0,1,0,.14.21.21,0,0,1-.2,0A.09.09,0,0,1,308.6,183.76Z" style="fill:#fff"></path><path d="M309,183.91a.19.19,0,0,1,.2,0,.08.08,0,0,1,0,.14.19.19,0,0,1-.19.05C308.91,184,308.9,184,309,183.91Z" style="fill:#fff"></path><path d="M309.3,184.06a.19.19,0,0,1,.2,0,.08.08,0,0,1,0,.14.18.18,0,0,1-.2,0C309.26,184.18,309.25,184.12,309.3,184.06Z" style="fill:#fff"></path><path d="M309.65,184.21a.19.19,0,0,1,.2,0,.08.08,0,0,1,0,.14.19.19,0,0,1-.2,0C309.61,184.33,309.6,184.27,309.65,184.21Z" style="fill:#fff"></path><path d="M310,184.36a.19.19,0,0,1,.2,0,.08.08,0,0,1,0,.14.19.19,0,0,1-.2,0C310,184.48,310,184.42,310,184.36Z" style="fill:#fff"></path><polygon points="322.83 190.41 321.49 189.84 322.15 189.13 323.49 189.71 322.83 190.41" style="fill:#fff"></polygon><polygon points="322.81 189.75 322.22 189.5 322 189.73 322.59 189.98 322.81 189.75" style="fill:#fff"></polygon><polygon points="322.93 190.1 322.85 190.06 323.03 189.87 323.11 189.91 322.93 190.1" style="fill:#fff"></polygon><polygon points="285.83 210.13 285.7 210.07 285.24 210.56 285 210.46 285.24 210.21 284.82 210.03 284.58 210.28 284.34 210.18 284.81 209.69 284.68 209.63 285.72 209.38 285.83 210.13" style="fill:#ebebeb"></polygon><polygon points="298.92 215.29 297.54 214.69 297.69 214.52 299.08 215.12 298.92 215.29" style="fill:#ebebeb"></polygon><polygon points="298.53 215.7 297.15 215.1 297.31 214.94 298.69 215.53 298.53 215.7" style="fill:#ebebeb"></polygon><polygon points="298.14 216.11 296.76 215.52 296.92 215.35 298.3 215.94 298.14 216.11" style="fill:#ebebeb"></polygon><polygon points="292.1 212.72 291.38 212.91 291.31 212.38 291.44 212.36 291.49 212.79 292.08 212.64 292.1 212.72" style="fill:#ebebeb"></polygon><path d="M291.43,213.81a1.34,1.34,0,0,1-.56-.12,1,1,0,0,1-.61-.7,1.1,1.1,0,0,1,.31-1,1.65,1.65,0,0,1,1.76-.39,1,1,0,0,1,.6.71,1,1,0,0,1-.3.94A1.69,1.69,0,0,1,291.43,213.81Zm.39-1.28a.75.75,0,0,0-.53.2.52.52,0,0,0,.61-.11.15.15,0,0,0,.05-.08Z" style="fill:#ebebeb"></path><path d="M312.86,187.82a.79.79,0,0,1,.81-.18.39.39,0,0,1,.2.2.07.07,0,0,1-.06.09.08.08,0,0,1-.11,0,.24.24,0,0,0-.14-.14.51.51,0,0,0-.3,0,.44.44,0,0,0-.25.14.22.22,0,0,0,.07.39.51.51,0,0,0,.25,0s.08,0,.08,0,0,.07-.09.08a.73.73,0,0,1-.36,0A.34.34,0,0,1,312.86,187.82Z" style="fill:#fff"></path><path d="M313.55,188.56l.58-.61a.11.11,0,0,1,.12,0s.05.05,0,.09l-.23.25.32.13.23-.25a.11.11,0,0,1,.12,0,0,0,0,0,1,0,.08l-.58.61a.1.1,0,0,1-.12,0s0-.05,0-.09l.23-.24-.32-.14-.23.25a.13.13,0,0,1-.12,0A.05.05,0,0,1,313.55,188.56Z" style="fill:#fff"></path><path d="M314.89,189l-.3-.12-.18.1s-.08,0-.1,0,0,0,0,0,0-.07,0-.09l.84-.5s.08,0,.1,0a0,0,0,0,1,0,.06l-.3.73a.12.12,0,0,1-.11,0h0a.06.06,0,0,1,0-.07Zm.06-.13.11-.27-.31.18Z" style="fill:#fff"></path><path d="M316.06,188.86l-.19-.08-.52.55a.14.14,0,0,1-.12,0,.05.05,0,0,1,0-.09l.52-.55-.19-.08a.06.06,0,0,1,0-.09.13.13,0,0,1,.13,0l.52.23s0,.05,0,.08A.11.11,0,0,1,316.06,188.86Z" style="fill:#fff"></path><polygon points="296.88 197.32 308.83 202.46 311.81 199.29 299.86 194.15 299.86 194.15 296.88 197.32 296.88 197.32" style="fill:#455a64"></polygon><polygon points="309.94 202.93 308.83 202.46 309.74 201.48 309.94 202.93" style="fill:#455a64"></polygon><polygon points="310.55 199.6 299.97 195.06 300.03 195 310.61 199.54 310.55 199.6" style="fill:#fff"></polygon><polygon points="308.05 198.99 299.67 195.38 299.72 195.32 308.11 198.93 308.05 198.99" style="fill:#fff"></polygon><polygon points="308.76 200.2 299.06 196.03 299.11 195.97 308.82 200.14 308.76 200.2" style="fill:#fff"></polygon><polygon points="309.33 200.9 298.75 196.35 298.81 196.29 309.39 200.84 309.33 200.9" style="fill:#fff"></polygon><polygon points="309.02 201.23 298.44 196.68 298.5 196.62 309.08 201.17 309.02 201.23" style="fill:#fff"></polygon><polygon points="305.79 200.29 298.14 197 298.19 196.94 305.84 200.23 305.79 200.29" style="fill:#fff"></polygon><polygon points="289.85 204.79 301.8 209.93 304.77 206.76 292.82 201.63 292.82 201.63 289.85 204.79 289.85 204.79" style="fill:#455a64"></polygon><polygon points="302.9 210.41 301.8 209.93 302.71 208.96 302.9 210.41" style="fill:#455a64"></polygon><polygon points="303.52 207.08 292.94 202.53 293 202.47 303.57 207.02 303.52 207.08" style="fill:#fff"></polygon><polygon points="301.02 206.46 292.63 202.85 292.69 202.79 301.07 206.4 301.02 206.46" style="fill:#fff"></polygon><polygon points="301.73 207.68 292.02 203.5 292.08 203.44 301.79 207.62 301.73 207.68" style="fill:#fff"></polygon><polygon points="302.3 208.38 291.72 203.83 291.77 203.77 302.35 208.32 302.3 208.38" style="fill:#fff"></polygon><polygon points="301.99 208.7 291.41 204.15 291.47 204.09 302.05 208.64 301.99 208.7" style="fill:#fff"></polygon><polygon points="298.75 207.77 291.1 204.48 291.16 204.42 298.81 207.71 298.75 207.77" style="fill:#fff"></polygon><polygon points="315.87 196.63 303.92 191.49 306.44 188.82 318.38 193.96 315.87 196.63" style="fill:#FFAE48"></polygon><polygon points="302.82 191.01 303.92 191.49 304.84 190.52 302.82 191.01" style="fill:#FFAE48"></polygon><polygon points="315.42 193.46 306.61 189.67 306.67 189.61 315.48 193.4 315.42 193.46" style="fill:#fff"></polygon><polygon points="316.89 194.55 306.31 190 306.36 189.94 316.94 194.49 316.89 194.55" style="fill:#fff"></polygon><polygon points="316.58 194.87 306 190.32 306.06 190.26 316.64 194.81 316.58 194.87" style="fill:#fff"></polygon><polygon points="315.44 194.84 305.7 190.65 305.75 190.59 315.49 194.78 315.44 194.84" style="fill:#fff"></polygon><polygon points="315.97 195.52 305.39 190.97 305.45 190.91 316.03 195.46 315.97 195.52" style="fill:#fff"></polygon><polygon points="312.9 194.66 305.08 191.3 305.14 191.24 312.96 194.6 312.9 194.66" style="fill:#fff"></polygon><polygon points="313.6 199.04 301.65 193.9 303.52 191.92 315.46 197.06 313.6 199.04" style="fill:#FFAE48"></polygon><polygon points="300.55 193.43 301.65 193.9 302.57 192.93 300.55 193.43" style="fill:#FFAE48"></polygon><polygon points="314.25 197.31 303.69 192.78 303.75 192.71 314.31 197.25 314.25 197.31" style="fill:#fff"></polygon><polygon points="312.08 196.84 303.39 193.1 303.44 193.04 312.14 196.78 312.08 196.84" style="fill:#fff"></polygon><polygon points="312.65 197.54 303.08 193.42 303.14 193.36 312.7 197.48 312.65 197.54" style="fill:#fff"></polygon><polygon points="310.15 196.92 302.78 193.75 302.83 193.69 310.21 196.86 310.15 196.92" style="fill:#fff"></polygon><polygon points="306.58 206.5 294.63 201.36 297.26 198.57 309.21 203.71 306.58 206.5" style="fill:#dbdbdb"></polygon><polygon points="293.52 200.88 294.63 201.36 295.55 200.39 293.52 200.88" style="fill:#dbdbdb"></polygon><polygon points="306.52 204.68 296.53 200.39 296.58 200.33 306.58 204.62 306.52 204.68" style="fill:#fff"></polygon><polygon points="305.4 204.66 296.22 200.71 296.28 200.65 305.46 204.6 305.4 204.66" style="fill:#fff"></polygon><polygon points="306.55 203.78 297.14 199.74 297.2 199.68 306.61 203.72 306.55 203.78" style="fill:#fff"></polygon><polygon points="307.89 203.9 297.44 199.41 297.5 199.35 307.95 203.84 307.89 203.9" style="fill:#fff"></polygon><polygon points="305.42 205.12 295.92 201.04 295.97 200.98 305.48 205.06 305.42 205.12" style="fill:#fff"></polygon><polygon points="299.94 213.55 287.99 208.41 290.18 206.09 302.13 211.23 299.94 213.55" style="fill:#FFAE48"></polygon><polygon points="286.88 207.94 287.99 208.41 288.9 207.44 286.88 207.94" style="fill:#FFAE48"></polygon><polygon points="300.95 211.47 290.38 206.92 290.43 206.86 301.01 211.41 300.95 211.47" style="fill:#fff"></polygon><polygon points="300.65 211.8 290.07 207.25 290.13 207.19 300.7 211.74 300.65 211.8" style="fill:#fff"></polygon><polygon points="299.5 211.76 289.76 207.57 289.82 207.51 299.56 211.7 299.5 211.76" style="fill:#fff"></polygon><polygon points="300.04 212.45 289.46 207.9 289.51 207.84 300.09 212.39 300.04 212.45" style="fill:#fff"></polygon><polygon points="296.97 211.58 289.15 208.22 289.21 208.16 297.03 211.52 296.97 211.58" style="fill:#fff"></polygon><path d="M295.61,221.35c-4.41.07,9.91-8.87,10.13-13.88s-4.67-3.44-8.52-.61c-13.37,9.83-23.46,9.35-30.24,18.74S295.61,221.35,295.61,221.35Z" style="fill:#dd6a57"></path><path d="M286.77,213.19c-3.24,1.61-6.45,3.25-9.58,5a41.74,41.74,0,0,0-4.52,2.89,51.85,51.85,0,0,0-4.19,3.33l-.09.07-.1,0c-2.81.71-5.61,1.45-8.43,2.08s-5.64,1.28-8.47,1.89-5.68,1.11-8.54,1.56a39.27,39.27,0,0,1-4.33.48,8.26,8.26,0,0,1-1.11,0,1.66,1.66,0,0,1-1-.48,7.31,7.31,0,0,1-1.29-1.76,7.83,7.83,0,0,0,1.4,1.63c.53.52,1.28.37,2,.32,1.42-.15,2.84-.45,4.25-.71,2.83-.55,5.64-1.23,8.46-1.87s5.62-1.3,8.43-2l8.42-2-.19.1a49.77,49.77,0,0,1,4.33-3.33,43.36,43.36,0,0,1,4.7-2.75q2.4-1.26,4.88-2.35C283.43,214.57,285.09,213.85,286.77,213.19Z" style="fill:#263238"></path><path d="M202.73,231.85l20.46-20.23a184.22,184.22,0,0,0-12.53-18.23c-7.67-9.88-13.79-8.25-13.22,8.6A107,107,0,0,0,202.73,231.85Z" style="fill:#FFAE48"></path><path d="M205.82,192.75l2.32.78-1.41,2,0,2.44-2.33-.73L202,198l0-2.44-1.42-2,2.32-.78,1.46-2ZM217.21,205l1.42,2,0,2.44,2.34-.74.47.16c-.73-1.16-1.68-2.65-2.82-4.34Zm-11.86,8.86-1.46,2-2.32.78,1.42,2,0,2.45,2.34-.73,2.33.73,0-2.45,1.42-2-2.32-.78Z" style="fill:#fff"></path><path d="M220.24,208.63c-1.69,1.33-3.19,2.91-4.76,4.37s-3,2.8-4.44,4.24q-4.53,4.48-8.84,9.16c0,.06,0,.15.09.1q4.62-4.27,9.13-8.68c1.49-1.46,3-2.95,4.4-4.45s3.13-3,4.51-4.64C220.37,208.67,220.3,208.58,220.24,208.63Z" style="fill:#263238"></path><path d="M222,208.91c-.54-.9-1.11-1.78-1.69-2.65l-.36-.54a38.55,38.55,0,0,0-1.59-3.6s-.09,0-.07,0c.33.95.73,1.88,1.14,2.8-.9-1.33-1.83-2.65-2.85-3.88,0,0-.09,0-.07.05,1.05,1.82,2.22,3.57,3.33,5.35.54.87,3.28,5.05,3.25,5.1a5.85,5.85,0,0,0-.59.68c-.08.16,0,.1.06.06l1-.78S222.43,209.68,222,208.91Z" style="fill:#263238"></path><path d="M205.28,229.33c-.78.9-1.61,1.77-2.41,2.65l-.2.22-.12-.29a55,55,0,0,1-1.86-5.61c-.52-1.9-1-3.8-1.39-5.74s-.73-3.87-.94-5.83-.4-3.91-.47-5.88l1,5.8c.36,1.93.71,3.85,1.12,5.77s.84,3.82,1.33,5.71,1,3.8,1.58,5.65l-.31-.07C203.49,230.92,204.37,230.1,205.28,229.33Z" style="fill:#263238"></path><path d="M196.66,212.55A21,21,0,0,1,198,215c.2.42.4.83.57,1.26s.36.86.5,1.31a9.81,9.81,0,0,1-1.52-2.36A10.92,10.92,0,0,1,196.66,212.55Z" style="fill:#263238"></path></g><g id="freepik--Plant--inject-32"><path d="M413.21,377.54a317.23,317.23,0,0,0-.46-33.64,429,429,0,0,0-10.54-68.55c-2.94-12.69-6.56-25.16-10.33-37.62-.12-.37-.72-.27-.61.12,11.66,43.92,21.23,89.24,20.57,134.89-.18,12.77-1.66,25.32-2.88,38,0,.34.53.47.61.12C412,400,412.76,388.64,413.21,377.54Z" style="fill:#FFAE48"></path><path d="M391.27,237.85s-17.67,44.85-13.71,55.39S389.67,306,389.67,306s-10.81,15.43-3.26,29.91,24.34,13.79,25.45,30.2C411.86,366.14,412.8,297.52,391.27,237.85Z" style="fill:#FFAE48"></path><path d="M409.94,337.8a.31.31,0,0,0,0-.23c-2.48-30.49-7.89-60.89-17.13-90.21,0-.09-.17-.06-.15,0q5.25,19.68,9.28,39.56a19.54,19.54,0,0,0-8.43-4.7c-.06,0-.09.07,0,.09,3.27,1.41,6.4,3.05,8.71,5.82q.78,3.9,1.5,7.8c-4-4.41-9.42-6.6-14.9-8.68a.06.06,0,1,0,0,.12c5.7,2.32,11.39,5.32,15.25,10.23q2,11.17,3.55,22.41A21.27,21.27,0,0,0,397,314c-.13,0-.2.15-.07.19A22.25,22.25,0,0,1,407.6,321l.07.05c.35,2.64.69,5.27,1,7.92a27.14,27.14,0,0,0-7.39-4.46c-.07,0-.11.08,0,.11a25.44,25.44,0,0,1,7.4,4.9.18.18,0,0,0,.1,0c.29,2.51.58,5,.84,7.54a35.84,35.84,0,0,0-15-10.7c-.11-.05-.17.13-.06.18A39,39,0,0,1,409.3,338a.31.31,0,0,0,.37.12q.57,5.79,1,11.59c0,.06.09.06.08,0Q410.43,343.75,409.94,337.8Z" style="fill:#263238"></path><path d="M395.75,277.8a22,22,0,0,0-10.62-3.31c-.09,0-.09.12,0,.13a42.08,42.08,0,0,1,10.5,3.43A.14.14,0,0,0,395.75,277.8Z" style="fill:#263238"></path><path d="M397.89,325.27a22.44,22.44,0,0,0-8-2.72c-.09,0-.1.13,0,.15a30.13,30.13,0,0,1,7.88,2.76C397.9,325.52,398,325.34,397.89,325.27Z" style="fill:#263238"></path><path d="M459.66,294a120.1,120.1,0,0,0-20.45,17.88,73.41,73.41,0,0,0-14.35,24.32,181.83,181.83,0,0,0-10.68,58.17,141,141,0,0,0,3.15,32.71.31.31,0,0,0,.61-.12,183.68,183.68,0,0,1,.32-57.18c3-18.55,7.8-38.73,19.6-53.81,6.42-8.21,14.42-14.67,22.34-21.34C460.62,294.25,460.08,293.67,459.66,294Z" style="fill:#FFAE48"></path><path d="M416.78,381a109.82,109.82,0,0,1,14.91-19.05c8.84-8.84,16.28-15.12,17.43-21s-8.86-10.15-8.86-10.15,12.24,2.19,15.58-2.94,5-34.86,5-34.86-22.25,15.88-32.61,38.15S416.78,381,416.78,381Z" style="fill:#FFAE48"></path><path d="M453.11,300.64c-9.37,9.19-18.79,19-24.3,31.07a120.69,120.69,0,0,0-4.92,12.82v0c-.29.88-.58,1.75-.84,2.64a.24.24,0,0,0-.05.14,251.13,251.13,0,0,0-6.32,27.47c0,.06.08.09.09,0,1-4.64,2-9.32,3.2-14a.31.31,0,0,0,.13,0,19.38,19.38,0,0,1,5.84-1.48c.13,0,.12-.25,0-.24a22.31,22.31,0,0,0-5.78,1.05c1.08-4.21,2.25-8.41,3.57-12.54a61.79,61.79,0,0,1,13.2-1.73s.05-.07,0-.07a49.49,49.49,0,0,0-13,1.1c.23-.71.46-1.42.7-2.12a65.45,65.45,0,0,1,8.78-1.49c.06,0,.05-.1,0-.1a42.85,42.85,0,0,0-8.6,1.05c1.21-3.58,2.52-7.12,4-10.56a64.61,64.61,0,0,1,4.2-8.15,53.91,53.91,0,0,1,7.12-1.27c.07,0,.06-.12,0-.12a19.21,19.21,0,0,0-6.66.66c1.17-1.89,2.4-3.75,3.71-5.54h0c5-1.1,10-2.13,15.15-1.17.09,0,.12-.13,0-.16-4.86-1.27-9.68-.54-14.52.42.53-.7,1.07-1.39,1.62-2.08a33,33,0,0,1,9.32-1.47.05.05,0,0,0,0-.1,24.31,24.31,0,0,0-8.7.77c4.13-5.13,8.69-9.94,13.19-14.7C453.49,300.55,453.33,300.42,453.11,300.64Z" style="fill:#263238"></path><path d="M452.86,320.9a20.54,20.54,0,0,0-4.43-.15c-.18,0-.16.31,0,.32,1.46,0,2.93-.07,4.39,0A.09.09,0,0,0,452.86,320.9Z" style="fill:#263238"></path><path d="M436.84,349.75a20.19,20.19,0,0,0-6.86,1.37c-.05,0,0,.11,0,.1,2.26-.54,4.55-.76,6.84-1.14A.17.17,0,0,0,436.84,349.75Z" style="fill:#263238"></path><path d="M432,339.78a15,15,0,0,0-2.91.26c-.1,0-.09.18,0,.18a15,15,0,0,0,2.92-.14A.15.15,0,0,0,432,339.78Z" style="fill:#263238"></path><path d="M351.55,325.52a101,101,0,0,1,20.68,9.74,61.91,61.91,0,0,1,17.23,16.37,153,153,0,0,1,22.09,44.61,118.69,118.69,0,0,1,5,27.2.26.26,0,0,1-.52.05,154.43,154.43,0,0,0-13.47-46.21c-6.75-14.31-15.27-29.54-28.3-39-7.09-5.16-15.07-8.53-23-12.1C350.84,326,351.14,325.38,351.55,325.52Z" style="fill:#FFAE48"></path><path d="M406.36,386a92.41,92.41,0,0,0-16.47-12c-9.19-5.11-16.67-8.47-18.95-12.93s4.82-10.26,4.82-10.26-9.39,4.6-13.28,1.22S350.4,325,350.4,325s21.68,7.71,35.22,23.33S406.36,386,406.36,386Z" style="fill:#FFAE48"></path><path d="M405.23,381.14c-10.84-20.35-25.31-38.76-45.13-50.92,0,0,0,0,0,0a99.88,99.88,0,0,1,14.51,11.35,23,23,0,0,0-11.66,2.46.07.07,0,1,0,.06.12,31.91,31.91,0,0,1,12-2,.29.29,0,0,0,.14,0c.7.66,1.4,1.34,2.08,2A37.18,37.18,0,0,0,371,345c-.06,0,0,.1,0,.09a31.61,31.61,0,0,1,6.58-.54,136.27,136.27,0,0,1,10.23,11.61,10.51,10.51,0,0,0-4.36.31.09.09,0,0,0,0,.17,23.33,23.33,0,0,1,4.65-.07c.6.76,1.2,1.51,1.78,2.28a42.3,42.3,0,0,0-13.16,1.27c-.06,0-.05.12,0,.11a52.79,52.79,0,0,1,13.51-.88c.56.73,1.08,1.49,1.62,2.23a28.38,28.38,0,0,0-7.83.9.08.08,0,0,0,0,.15,29.85,29.85,0,0,1,8.11-.63c2.33,3.21,4.56,6.5,6.71,9.82a7.42,7.42,0,0,0-3.44.21,0,0,0,1,0,0,.09,15.41,15.41,0,0,1,3.72.18q2.89,4.51,5.59,9.1C405,381.6,405.38,381.41,405.23,381.14Z" style="fill:#263238"></path><path d="M388.36,364.26a16.78,16.78,0,0,0-6.29.77c-.06,0-.05.1,0,.09a49,49,0,0,1,6.27-.64A.11.11,0,0,0,388.36,364.26Z" style="fill:#263238"></path><path d="M369.45,339.46a10.49,10.49,0,0,0-2.9.17c-.11,0-.08.18,0,.17,1-.1,1.9-.07,2.85-.1A.12.12,0,1,0,369.45,339.46Z" style="fill:#263238"></path><polygon points="434.32 453.33 385.39 453.33 392.36 402.21 394.15 389.11 425.56 389.11 427.35 402.21 434.32 453.33" style="fill:#455a64"></polygon><polygon points="427.35 402.21 392.36 402.21 394.15 389.11 425.56 389.11 427.35 402.21" style="fill:#263238"></polygon><rect x="389.66" y="384.56" width="40.4" height="11.1" style="fill:#455a64"></rect></g><g id="freepik--speech-bubbles--inject-32"><polygon points="426.57 110.75 282.51 110.75 282.51 48.3 426.57 48.3 426.57 48.3 426.57 110.75 426.57 110.75" style="fill:#455a64"></polygon><polygon points="286.36 129.17 286.36 110.75 305.54 110.75 286.36 129.17" style="fill:#455a64"></polygon><rect x="293.9" y="59.09" width="121.28" height="1.19" style="fill:#fff"></rect><rect x="293.9" y="65.5" width="84.73" height="1.19" style="fill:#fff"></rect><rect x="293.9" y="78.32" width="106.8" height="1.19" style="fill:#fff"></rect><rect x="293.9" y="84.73" width="121.28" height="1.19" style="fill:#fff"></rect><rect x="293.9" y="91.14" width="121.28" height="1.19" style="fill:#fff"></rect><rect x="293.9" y="97.55" width="72.5" height="1.19" style="fill:#fff"></rect><polygon points="417.93 108.05 416.99 106.11 417.44 105.89 418.07 107.2 420.78 104.49 421.14 104.84 417.93 108.05" style="fill:#FFAE48"></polygon><polygon points="420.01 108.05 419.07 106.11 419.52 105.89 420.16 107.2 422.87 104.49 423.22 104.84 420.01 108.05" style="fill:#FFAE48"></polygon><polygon points="390.2 165.12 320.85 165.12 320.85 122.8 390.2 122.8 390.2 122.8 390.2 165.12 390.2 165.12" style="fill:#FFAE48"></polygon><polygon points="342.93 165.12 324.51 165.12 324.51 184.29 342.93 165.12" style="fill:#FFAE48"></polygon><path d="M369,144a2.8,2.8,0,1,0,2.8-2.8A2.81,2.81,0,0,0,369,144Z" style="fill:#fff"></path><path d="M352.73,144a2.8,2.8,0,1,0,2.8-2.8A2.8,2.8,0,0,0,352.73,144Z" style="fill:#fff"></path><path d="M336.49,144a2.8,2.8,0,1,0,2.8-2.8A2.81,2.81,0,0,0,336.49,144Z" style="fill:#fff"></path><rect x="349.09" y="192.21" width="78.25" height="55.08" style="fill:#ebebeb"></rect><polygon points="349.09 214.66 349.09 196.24 329.91 196.24 349.09 214.66" style="fill:#ebebeb"></polygon><circle cx="388.22" cy="219.75" r="18.85" transform="translate(-48.62 129.35) rotate(-17.82)" style="fill:#FFAE48"></circle><path d="M388,238.6a18.86,18.86,0,1,1,11.18-34.2,16.39,16.39,0,1,0,7.39,13.9,16.52,16.52,0,0,0-1.41-6.86A18.87,18.87,0,0,1,388,238.6Z" style="opacity:0.1"></path><path d="M392.27,215.26a4,4,0,0,1-7.14,2.42,3.9,3.9,0,0,1-.85-2.52Z" style="fill:#263238"></path><path d="M391.36,217.76a4,4,0,0,1-6.23-.08,4.76,4.76,0,0,1,6.23.08Z" style="fill:#ff99ba"></path><path d="M375.85,216.09a8.48,8.48,0,0,0,3.55,3,8.4,8.4,0,0,0,3.19-3.39c.73-1.72.1-3.51-1.23-3.83-1.91-.46-2.21,2.84-2.21,2.84s-.66-3.24-2.51-2.57C375.35,212.62,374.93,214.46,375.85,216.09Z" style="fill:#ff99ba"></path><path d="M400.67,216.4a8.5,8.5,0,0,1-3.62,2.92,8.43,8.43,0,0,1-3.1-3.47c-.69-1.74,0-3.51,1.32-3.8,1.92-.41,2.14,2.89,2.14,2.89s.74-3.22,2.57-2.5C401.26,212.94,401.64,214.79,400.67,216.4Z" style="fill:#ff99ba"></path><polygon points="418.42 244.57 417.48 242.63 417.93 242.41 418.56 243.72 421.27 241.01 421.63 241.36 418.42 244.57" style="fill:#FFAE48"></polygon><polygon points="420.51 244.57 419.56 242.63 420.01 242.41 420.65 243.72 423.36 241.01 423.71 241.36 420.51 244.57" style="fill:#FFAE48"></polygon></g></svg>