<svg width="25" height="25" viewBox="0 0 25 25" fill="none" xmlns="http://www.w3.org/2000/svg">
<path fill-rule="evenodd" clip-rule="evenodd" d="M12.5 23C19.1274 23 24.5 17.8513 24.5 11.5C24.5 5.14873 19.1274 0 12.5 0C5.87258 0 0.5 5.14873 0.5 11.5C0.5 13.2106 0.940189 15.0085 1.82057 16.8935L2.01595 17.2988C2.67754 18.6297 2.71277 20.1859 2.11209 21.5453C1.55503 22.806 1.46023 23.5895 1.82767 23.8957C2.23008 24.231 3.3886 23.9695 5.30322 23.1111L5.81984 22.8736C6.80936 22.4082 7.92171 22.2812 8.98647 22.5073L9.25157 22.5712C10.3097 22.8571 11.3925 23 12.5 23Z" fill="#A4AAB2"/>
</svg>
