<svg width="25" height="24" viewBox="0 0 25 24" fill="none" xmlns="http://www.w3.org/2000/svg">
<path fill-rule="evenodd" clip-rule="evenodd" d="M12.5 0C19.1274 0 24.5 5.37258 24.5 12C24.5 18.6274 19.1274 24 12.5 24C5.87258 24 0.5 18.6274 0.5 12C0.5 5.37258 5.87258 0 12.5 0ZM18.3423 6.50717C18.1323 6.1609 17.7013 6.03083 17.34 6.18808L17.2434 6.23814L11.1209 9.95551C10.9011 10.0889 10.7097 10.2632 10.5565 10.4682L10.449 10.6276L6.73814 16.7434L6.68808 16.84C6.54513 17.1685 6.63962 17.5545 6.91814 17.7798L7.00717 17.8423L7.10718 17.8938C7.31238 17.9817 7.54549 17.9798 7.74921 17.8885L7.84835 17.8354L13.91 14.0331C14.1145 13.9048 14.2936 13.7409 14.4392 13.5495L14.5419 13.401L18.3354 7.34835C18.4968 7.09191 18.4995 6.76625 18.3423 6.50717Z" fill="#A4AAB2"/>
</svg>
