<svg width="24" height="24" viewBox="0 0 24 24" fill="none" xmlns="http://www.w3.org/2000/svg">
<path d="M12 23.3467C18.2666 23.3467 23.4551 18.147 23.4551 11.8916C23.4551 5.625 18.2554 0.436523 11.9888 0.436523C5.7334 0.436523 0.544922 5.625 0.544922 11.8916C0.544922 18.147 5.74463 23.3467 12 23.3467ZM8.04688 16.7881C7.5415 16.7881 7.12598 16.3613 7.12598 15.8447C7.12598 15.5977 7.22705 15.373 7.39551 15.1934L10.686 11.9028L7.39551 8.6123C7.22705 8.43262 7.12598 8.20801 7.12598 7.96094C7.12598 7.44434 7.5415 7.04004 8.04688 7.04004C8.31641 7.04004 8.52979 7.12988 8.69824 7.30957L12 10.6001L15.3354 7.29834C15.5264 7.10742 15.7285 7.01758 15.9756 7.01758C16.481 7.01758 16.8965 7.43311 16.8965 7.93848C16.8965 8.19678 16.8179 8.39893 16.627 8.60107L13.3252 11.9028L16.6157 15.1821C16.7954 15.373 16.8853 15.5864 16.8853 15.8447C16.8853 16.3613 16.4697 16.7881 15.9531 16.7881C15.6948 16.7881 15.4702 16.6758 15.2905 16.5073L12 13.2168L8.73193 16.5073C8.55225 16.687 8.31641 16.7881 8.04688 16.7881Z" fill="#45A391"/>
</svg>
