<svg width="26" height="28" viewBox="0 0 26 28" fill="none" xmlns="http://www.w3.org/2000/svg">
<path d="M13 9.30957C13.4829 9.30957 13.8872 8.9165 13.8872 8.44482V4.72754L13.8198 2.85205L14.7856 3.85156L16.2456 5.32275C16.4141 5.49121 16.6387 5.59229 16.8521 5.59229C17.335 5.59229 17.6831 5.25537 17.6831 4.79492C17.6831 4.53662 17.582 4.33447 17.3911 4.16602L13.6514 0.68457C13.4155 0.471191 13.2358 0.381348 13 0.381348C12.7642 0.381348 12.5845 0.471191 12.3486 0.68457L8.60889 4.16602C8.41797 4.33447 8.31689 4.53662 8.31689 4.79492C8.31689 5.25537 8.65381 5.59229 9.13672 5.59229C9.3501 5.59229 9.58594 5.49121 9.75439 5.32275L11.2144 3.85156L12.1802 2.85205L12.1016 4.72754V8.44482C12.1016 8.9165 12.5171 9.30957 13 9.30957ZM3.54395 21.3149H7.21631V19.6191H3.77979C2.76904 19.6191 2.15137 18.9453 2.15137 18.0244V9.53418C2.15137 8.61328 2.76904 7.95068 3.77979 7.95068H7.21631V6.25488H3.54395C1.66846 6.25488 0.365723 7.52393 0.365723 9.25342V18.3164C0.365723 20.0347 1.66846 21.3149 3.54395 21.3149ZM22.4561 21.3149C24.3315 21.3149 25.6343 20.0347 25.6343 18.3164V9.25342C25.6343 7.52393 24.3315 6.25488 22.4561 6.25488H18.7837V7.95068H22.2202C23.231 7.95068 23.8486 8.61328 23.8486 9.53418V18.0244C23.8486 18.9453 23.231 19.6191 22.2202 19.6191H18.7837V21.3149H22.4561ZM13 27.1772C13.2358 27.1772 13.4155 27.0874 13.6514 26.874L17.3911 23.3926C17.582 23.2241 17.6831 23.022 17.6831 22.7637C17.6831 22.3032 17.3462 21.9775 16.8633 21.9775C16.6499 21.9775 16.4141 22.0674 16.2456 22.2358L14.7856 23.707L13.8198 24.7065L13.8872 22.8311V19.125C13.8872 18.6421 13.4829 18.249 13 18.249C12.5171 18.249 12.1016 18.6421 12.1016 19.125V22.8311L12.1802 24.7065L11.2144 23.707L9.75439 22.2358C9.58594 22.0674 9.36133 21.9775 9.14795 21.9775C8.66504 21.9775 8.31689 22.3032 8.31689 22.7637C8.31689 23.022 8.41797 23.2241 8.60889 23.3926L12.3486 26.874C12.5845 27.0874 12.7642 27.1772 13 27.1772Z" fill="#45A391"/>
</svg>
