<svg width="24" height="24" viewBox="0 0 24 24" fill="none" xmlns="http://www.w3.org/2000/svg">
<path d="M12 23.3467C18.2666 23.3467 23.4551 18.147 23.4551 11.8916C23.4551 5.625 18.2554 0.436523 11.9888 0.436523C5.7334 0.436523 0.544922 5.625 0.544922 11.8916C0.544922 18.147 5.74463 23.3467 12 23.3467ZM6.87891 11.9028C6.87891 11.3188 7.29443 10.9146 7.87842 10.9146H11.0229V7.77002C11.0229 7.18604 11.416 6.77051 11.9888 6.77051C12.5728 6.77051 12.9771 7.1748 12.9771 7.77002V10.9146H16.1328C16.7056 10.9146 17.1211 11.3188 17.1211 11.9028C17.1211 12.4756 16.7056 12.8574 16.1328 12.8574H12.9771V16.0244C12.9771 16.5972 12.5728 17.0015 11.9888 17.0015C11.416 17.0015 11.0229 16.5972 11.0229 16.0244V12.8574H7.87842C7.29443 12.8574 6.87891 12.4756 6.87891 11.9028Z" fill="#45A391"/>
</svg>
