<svg width="28" height="22" viewBox="0 0 28 22" fill="none" xmlns="http://www.w3.org/2000/svg">
<path d="M4.28564 21.2349H23.7144C26.0728 21.2349 27.2407 20.0781 27.2407 17.7646V4.04102C27.2407 1.72754 26.0728 0.55957 23.7144 0.55957H4.28564C1.93848 0.55957 0.759277 1.72754 0.759277 4.04102V17.7646C0.759277 20.0781 1.93848 21.2349 4.28564 21.2349ZM19.4131 10.8916C18.9077 10.4424 18.3237 10.1953 17.7173 10.1953C17.0996 10.1953 16.5493 10.4087 16.0327 10.8691L10.9565 15.4062L8.87891 13.5308C8.40723 13.104 7.89062 12.8906 7.36279 12.8906C6.85742 12.8906 6.38574 13.0928 5.91406 13.5195L2.56738 16.5405V4.14209C2.56738 2.97412 3.18506 2.36768 4.30811 2.36768H23.6919C24.8037 2.36768 25.4326 2.97412 25.4326 4.14209V16.5405L19.4131 10.8916ZM9.12598 11.0039C10.5747 11.0039 11.7651 9.81348 11.7651 8.35352C11.7651 6.90479 10.5747 5.70312 9.12598 5.70312C7.66602 5.70312 6.47559 6.90479 6.47559 8.35352C6.47559 9.81348 7.66602 11.0039 9.12598 11.0039Z" fill="#45A391"/>
</svg>
