<svg width="31" height="23" viewBox="0 0 31 23" fill="none" xmlns="http://www.w3.org/2000/svg">
<path fill-rule="evenodd" clip-rule="evenodd" d="M9.30701 14.08C10.33 14.08 11.157 14.1922 12.0049 14.4204L12.3242 14.5115C12.7705 14.6456 13.0236 15.116 12.8895 15.5623C12.8677 15.635 12.8362 15.7043 12.796 15.7682L12.708 15.8859C11.9005 16.8744 11.3811 17.9607 11.0111 19.2303L10.9134 19.5908L10.8671 19.8048C10.8169 20.0968 10.8 20.3026 10.8 20.5088C10.8 20.6245 10.8052 20.739 10.8154 20.852L10.8344 21.0205C10.9038 21.5321 10.5453 22.0032 10.0336 22.0726C9.99193 22.0783 9.9499 22.0811 9.90783 22.0811L2.07116 22.08C1.20343 22.08 0.5 21.3765 0.5 20.5088C0.5 20.4228 0.507054 20.3371 0.521057 20.2524L0.547259 20.1264C1.41912 16.6524 4.69089 14.08 9.30701 14.08ZM21.807 14.08C26.3205 14.08 29.5295 16.4675 30.3695 19.9785L30.4231 20.2196C30.5958 21.0567 30.0573 21.8753 29.2202 22.0481C29.1173 22.0693 29.0125 22.08 28.9074 22.08H14.5712C13.7034 22.08 13 21.3765 13 20.5088C13 20.4228 13.0071 20.3371 13.0211 20.2524L13.0473 20.1264C13.9191 16.6524 17.1909 14.08 21.807 14.08ZM10.6007 0.171458C12.2558 0.568004 13.8278 1.90055 13.7356 5.03018L13.7226 5.31967C13.6775 5.38891 14.2951 5.67173 14.2951 6.58213C14.2951 7.18906 14.1043 7.60216 13.7226 7.82143C13.023 10.8711 11.5658 12.3959 9.35072 12.3959C7.13569 12.3959 5.55055 10.8711 4.59532 7.82143C4.23644 7.66412 4.05701 7.25102 4.05701 6.58213C4.05701 5.91324 4.23644 5.49242 4.59532 5.31967C4.6335 2.79061 5.20971 1.34691 6.32394 0.988584C6.76624 0.847227 7.1847 0.847227 7.57932 0.988584C7.97844 0.056872 8.98555 -0.215503 10.6007 0.171458ZM26.8033 2.62906C27.9137 4.53958 28.1199 6.87324 27.4217 9.63004C27.371 9.91631 27.5539 10.1461 27.9703 10.3195L28.0248 10.3402L28.0932 10.3629C28.2475 10.4112 28.3335 10.5755 28.2852 10.7298C28.2714 10.7736 28.2477 10.8133 28.2162 10.8458L28.1635 10.889C27.476 11.3286 25.4925 11.3611 24.3417 11.1334C23.581 11.9452 22.7497 12.3511 21.8476 12.3511C20.9454 12.3511 20.1049 11.9452 19.3259 11.1334C17.1466 10.9594 16.057 9.32662 16.057 6.23489C16.057 3.40441 17.194 1.54414 19.468 0.65408C19.86 0.500628 20.2905 0.474806 20.6981 0.580285L20.9998 0.658375C23.1104 -0.657635 25.0449 -0.000739098 26.8033 2.62906Z" fill="#A4AAB2"/>
</svg>
