<svg width="26" height="29" viewBox="0 0 26 29" fill="none" xmlns="http://www.w3.org/2000/svg">
<path d="M13 9.8042C13.2246 9.8042 13.4155 9.71436 13.6514 9.50098L17.3799 6.01953C17.5708 5.85107 17.6831 5.64893 17.6831 5.39062C17.6831 4.93018 17.3237 4.59326 16.8521 4.59326C16.6274 4.59326 16.4141 4.69434 16.2456 4.86279L14.7856 6.32275L13.8198 7.3335L13.8872 5.44678V1.74072C13.8872 1.26904 13.4829 0.875977 13 0.875977C12.5171 0.875977 12.1016 1.26904 12.1016 1.74072V5.44678L12.1802 7.3335L11.2144 6.32275L9.74316 4.86279C9.57471 4.69434 9.3501 4.59326 9.12549 4.59326C8.65381 4.59326 8.30566 4.93018 8.30566 5.39062C8.30566 5.64893 8.41797 5.85107 8.60889 6.01953L12.3374 9.50098C12.5845 9.71436 12.7642 9.8042 13 9.8042ZM4.03809 18.3506H21.9507C23.8262 18.3506 25.1289 17.0815 25.1289 15.3521V14.2065C25.1289 12.4771 23.8262 11.208 21.9507 11.208H4.03809C2.1626 11.208 0.859863 12.4771 0.859863 14.2065V15.3521C0.859863 17.0815 2.1626 18.3506 4.03809 18.3506ZM4.27393 16.6548C3.26318 16.6548 2.64551 15.981 2.64551 15.0713V14.4873C2.64551 13.5776 3.26318 12.9038 4.27393 12.9038H21.7148C22.7256 12.9038 23.3433 13.5776 23.3433 14.4873V15.0713C23.3433 15.981 22.7256 16.6548 21.7148 16.6548H4.27393ZM13 28.6826C13.4829 28.6826 13.8872 28.2896 13.8872 27.8179V24.1118L13.8198 22.2251L14.7856 23.2358L16.2456 24.6958C16.4141 24.8643 16.6274 24.9653 16.8521 24.9653C17.3237 24.9653 17.6831 24.6396 17.6831 24.168C17.6831 23.9097 17.5708 23.7188 17.3799 23.5391L13.6514 20.0576C13.4155 19.8442 13.2246 19.7656 13 19.7656C12.7642 19.7656 12.5845 19.8442 12.3374 20.0576L8.60889 23.5391C8.41797 23.7188 8.30566 23.9097 8.30566 24.168C8.30566 24.6396 8.65381 24.9653 9.12549 24.9653C9.3501 24.9653 9.57471 24.8643 9.74316 24.6958L11.2144 23.2358L12.1802 22.2251L12.1016 24.1118V27.8179C12.1016 28.2896 12.5171 28.6826 13 28.6826Z" fill="#45A391"/>
</svg>
